/* XPM */
static char *folder_open_xpm[] = {
/* columns rows colors chars-per-pixel */
"18 17 241 2 ",
"   c #355061",
".  c #3A596D",
"X  c #385672",
"o  c #3E5E75",
"O  c #495C63",
"+  c #4A5A67",
"@  c #43596E",
"#  c #42586F",
"$  c #47586C",
"%  c #455A6D",
"&  c #455C6C",
"*  c #4C5969",
"=  c #4D5A6B",
"-  c #485E6B",
";  c #4A5D6E",
":  c #495E6F",
">  c #455F70",
",  c #455E7C",
"<  c #466172",
"1  c #416075",
"2  c #446075",
"3  c #466375",
"4  c #496372",
"5  c #4D6273",
"6  c #486177",
"7  c #446479",
"8  c #4D607E",
"9  c #4C677C",
"0  c #536675",
"q  c #536677",
"w  c #516C77",
"e  c #5D6A70",
"r  c #596B77",
"t  c #5C6874",
"y  c #50657A",
"u  c #546B7B",
"i  c #50697F",
"p  c #516A7E",
"a  c #556A7D",
"s  c #576C7F",
"d  c #586B7A",
"f  c #5D6B78",
"g  c #5A6D7B",
"h  c #5B6E7D",
"j  c #616B6D",
"k  c #4C6880",
"l  c #526784",
"z  c #526B81",
"x  c #526C83",
"c  c #566C83",
"v  c #536D84",
"b  c #536F87",
"n  c #596F86",
"m  c #536E8B",
"M  c #597080",
"N  c #5B7186",
"B  c #5B758C",
"V  c #5B7888",
"C  c #6A7980",
"Z  c #75868E",
"A  c #7F878A",
"S  c #7D868F",
"D  c #62809A",
"F  c #7B8A91",
"G  c #6786A3",
"H  c #6F89A2",
"J  c #7891A5",
"K  c #7C91AE",
"L  c #7C96AD",
"P  c #7493B2",
"I  c #7694B0",
"U  c #7C97B2",
"Y  c #7F9DB5",
"T  c #7EA0B9",
"R  c #7EA4BB",
"E  c #7BA3BD",
"W  c #80878F",
"Q  c #829EB6",
"!  c #839FB7",
"~  c #889EB6",
"^  c #819FB9",
"/  c #839CBB",
"(  c #839EBB",
")  c #849CB8",
"_  c #869DBC",
"`  c #879EBD",
"'  c #81A1BA",
"]  c #85A0BB",
"[  c #83A0BE",
"{  c #82A4BF",
"}  c #84A7BD",
"|  c #86A4BE",
" . c #89A1BB",
".. c #8DA3B8",
"X. c #8AA4BD",
"o. c #8CA6BF",
"O. c #93A5B9",
"+. c #94A5B9",
"@. c #97A8BA",
"#. c #94A9BE",
"$. c #80A5C0",
"%. c #82A5C1",
"&. c #87A7C0",
"*. c #89A2C1",
"=. c #8AA3C1",
"-. c #8CA4C0",
";. c #8FA7C3",
":. c #8DA6C4",
">. c #86A9C5",
",. c #8AA8C2",
"<. c #8CA8C0",
"1. c #8FACCA",
"2. c #90AAC3",
"3. c #97ABC3",
"4. c #9FAEC1",
"5. c #A7B4C5",
"6. c #A9B6C6",
"7. c #A1B1C8",
"8. c #A3B3CC",
"9. c #A8B7CA",
"0. c #ADBACD",
"q. c #ACBBD0",
"w. c #B0BDD0",
"e. c #B3BED2",
"r. c #B0BFD4",
"t. c #AFC1CD",
"y. c #B4C2CF",
"u. c #BAC3D2",
"i. c #BCC2D2",
"p. c #B8C4D0",
"a. c #B9C6D7",
"s. c #BEC7D6",
"d. c #B2C3DD",
"f. c #BECADA",
"g. c #BCCEDA",
"h. c #C7CDDB",
"j. c #C1CCDE",
"k. c #C5CEDD",
"l. c #C9CFDD",
"z. c #C2D3DD",
"x. c #C3D4DC",
"c. c #C5D6DE",
"v. c #CAD2DF",
"b. c #C8D7DE",
"n. c #CFD6DC",
"m. c #CAD3E2",
"M. c #CAD7E0",
"N. c #CCD5E6",
"B. c #C9DAE2",
"V. c #D0D7E7",
"C. c #D3D9E5",
"Z. c #D4DEEA",
"A. c #D3DBEE",
"S. c #D5E1ED",
"D. c #DAE0EC",
"F. c #D7E0F1",
"G. c #DEE8F1",
"H. c #E0E4EF",
"J. c #E2E4F0",
"K. c #E0E8F5",
"L. c #E7EBF7",
"P. c #E2ECF6",
"I. c #E2E9F9",
"U. c #E7EFFC",
"Y. c #EDEDF9",
"T. c #EAF0FE",
"R. c #E8F5FE",
"E. c #E3FFFF",
"W. c #E7FFFF",
"Q. c #E9FAFF",
"!. c #EDFBFF",
"~. c #E9FFFF",
"^. c #EBFFFF",
"/. c #ECFFFF",
"(. c #EDFFFF",
"). c #EEFFFF",
"_. c #EFFFFF",
"`. c #F5FAF4",
"'. c #F7F7F9",
"]. c #F1F1FD",
"[. c #F1F5FE",
"{. c #F0F6FF",
"}. c #F7F9F8",
"|. c #F0F9FF",
" X c #F1F9FF",
".X c #F4F9FC",
"XX c #F4F9FD",
"oX c #F6FAFD",
"OX c #F4FAFF",
"+X c #F5FBFF",
"@X c #F7FBFE",
"#X c #F7FAFF",
"$X c #F2FDFF",
"%X c #F3FDFF",
"&X c azure",
"*X c #F1FFFF",
"=X c #F2FFFF",
"-X c #F4FCFE",
";X c #F5FCFF",
":X c #F4FEFF",
">X c #F5FEFF",
",X c #F4FFFF",
"<X c #F5FFFF",
"1X c #F6FFFE",
"2X c #F6FFFF",
"3X c #F7FFFF",
"4X c #F9F9FB",
"5X c #FAF8FB",
"6X c #FFFBF8",
"7X c #FDFDFB",
"8X c #FFFCFA",
"9X c #FFFCFB",
"0X c #FCFFFA",
"qX c #FFFFFA",
"wX c #FEFFFB",
"eX c #FAFBFD",
"rX c #FFFBFC",
"tX c #FFFBFF",
"yX c #F8FCFF",
"uX c #FBFCFF",
"iX c #FAFDFF",
"pX c #F8FFFF",
"aX c #F9FFFF",
"sX c #FAFEFF",
"dX c #FBFFFF",
"fX c #FEFCFD",
"gX c #FDFFFC",
"hX c #FCFEFD",
"jX c #FFFEFC",
"kX c #FFFFFD",
"lX c #FCFDFF",
"zX c #FFFDFE",
"xX c #FEFCFF",
"cX c #FEFDFF",
"vX c #FFFDFF",
"bX c #FDFEFF",
"nX c #FCFFFF",
"mX c #FEFEFF",
"MX c #FFFEFF",
"NX c #FEFFFF",
"BX c white",
/* pixels */
"qXjXjXjXtX8X8X6XjXjXjXaXjXjXjXaXjXjX",
"aX3XOXaXaXjXtXtX4XjXjXjXjX5X'.jXjXjX",
").- 6 # ; + 3XOXaX4XoXjXtXjXjX`.jXjX",
"~.< ^ 1.X.J q Q.&X&X3XaXaX3X3X3XaX4X",
"&X5 ) ^ ` ` H k o 7 3 < $ * * 3XjXaX",
").- ;.=.;.] ^ { R E R } 2.~ 8 ).!..X",
").% ' ( | Q ,.' >.%.T &.U o.. ~.3X3X",
").4 Q m b B z i v v p c N p V w e aX",
"&X% ;.l d.e.j.N.A.F.I.T.{. XR.&Xj aX",
").$ K , 8.e.i.h.l.C.J.J.Y.].{.n.A 3X",
"~.9 , / 7.5.u.p.z.B.c.G.D.L.OXW OXaX",
"~.> X ,.3.@.6.y.t.g.c.M.U.K.P.S aXOX",
"E.> G P o.#.+.w.0.a.k.v.V.Z.c.F jXjX",
"~.  D P L ..+.4.q.9.f.s.m.S.Z 3XOXjX",
").O c N p d h 0 u M g r f t h aXaXjX",
"3X3X3X!.3X&X3X&X&X).&X).aX&X3XjXjXjX",
"aXjXaXjXaXaXjXaXaXaXaXjXaXjXaXjXjXjX"
};
