/* XPM */
static char *folder_xpm[] = {
/* columns rows colors chars-per-pixel */
"18 17 217 2 ",
"   c #5E6C6F",
".  c #5D6F6F",
"X  c #556876",
"o  c #5E6D74",
"O  c #5F6D78",
"+  c #596F7C",
"@  c #5F6C7C",
"#  c #606D73",
"$  c #606E77",
"%  c #676E74",
"&  c #647275",
"*  c #677077",
"=  c #647676",
"-  c #6E7176",
";  c #677079",
":  c #67717B",
">  c #63717C",
",  c #64707E",
"<  c #64757D",
"1  c #67747D",
"2  c #687178",
"3  c #6E7379",
"4  c #68757D",
"5  c #68757E",
"6  c #6D747E",
"7  c #6E757F",
"8  c #67787F",
"9  c #6A797C",
"0  c #6B797C",
"q  c #697B7D",
"w  c #6B787E",
"e  c #6F787F",
"r  c #71757E",
"t  c #74777C",
"y  c #556B82",
"u  c #5F7580",
"i  c #59718D",
"p  c #667282",
"a  c #657582",
"s  c #677284",
"d  c #6D7484",
"f  c #677880",
"g  c #697986",
"h  c #6A7A87",
"j  c #6C7A87",
"k  c #64758F",
"l  c #677888",
"z  c #677A88",
"x  c #707A83",
"c  c #707B8D",
"v  c #607592",
"b  c #76889C",
"n  c #7C90A8",
"m  c #7F93AB",
"M  c #8393AC",
"N  c #8898AF",
"B  c #8399B0",
"V  c #8199B5",
"C  c #8A9FB4",
"Z  c #869BB8",
"A  c #9CACBC",
"S  c #96A6C0",
"D  c #96A5C2",
"F  c #95A6C2",
"G  c #99AAC4",
"H  c #9CB1C4",
"J  c #9FB3CB",
"K  c #9FB4C9",
"L  c #A6B1C5",
"P  c #AAB4C0",
"I  c #AAB6C4",
"U  c #A3B3CA",
"Y  c #A4B0CA",
"T  c #A5B5CF",
"R  c #A6B4CE",
"E  c #ACB7CD",
"W  c #A9BBCF",
"Q  c #ADBDCD",
"!  c #B0B7C9",
"~  c #B3B8CC",
"^  c #B9B8CA",
"/  c #BCBFD2",
"(  c #BBC2CC",
")  c #BBC5CF",
"_  c #AFC0D2",
"`  c #B3C3D3",
"'  c #B4C3D6",
"]  c #BEC1D0",
"[  c #BCC5D4",
"{  c #BECBD3",
"}  c #B6C5DA",
"|  c #B8C5D8",
" . c #BBCBDA",
".. c #BFCFDE",
"X. c #BDD1EC",
"o. c #C8C7D7",
"O. c #C9C8D6",
"+. c #C9CCD5",
"@. c #C2CFD8",
"#. c #D1CFDD",
"$. c #C6D5DA",
"%. c #CBDBDB",
"&. c #C9DBDD",
"*. c #CBD8DE",
"=. c #CED9DF",
"-. c #C2D3E3",
";. c #C5D5E2",
":. c #CAD8E3",
">. c #CFDDE0",
",. c #CFDCE2",
"<. c #C4DAEF",
"1. c #C8DBEC",
"2. c #CCDDED",
"3. c #D0D6E4",
"4. c #D4D7E6",
"5. c #D3DAE2",
"6. c #D3DBE6",
"7. c #D4DDE4",
"8. c #D9DBE7",
"9. c #D5DBE9",
"0. c #D7DAEB",
"q. c #C9DEF9",
"w. c #CFE2E0",
"e. c #D4E2E3",
"r. c #D5E0E4",
"t. c #D5E5E4",
"y. c #D6E9E5",
"u. c #D8E6E9",
"i. c #DAE5EB",
"p. c #DEE2ED",
"a. c #D8E7EE",
"s. c #D9E6EF",
"d. c #CCE1F6",
"f. c #CCE2F7",
"g. c #D0E5F6",
"h. c #DEE1F2",
"j. c #E3E6F5",
"k. c #E4E5F7",
"l. c #E1ECF2",
"z. c #E6EAF5",
"x. c #E2EFF5",
"c. c #EAEEF7",
"v. c #E0EEF9",
"b. c #E9EBF8",
"n. c #E9ECFB",
"m. c #E6F9F7",
"M. c #E8F8F7",
"N. c #EAF1FB",
"B. c #EAF2FD",
"V. c #EEF8F9",
"C. c #E9F8FF",
"Z. c #EBF8FF",
"A. c #E9FFFF",
"S. c #EBFFFF",
"D. c #EDFCFF",
"F. c #EFFDFF",
"G. c #F1F7F5",
"H. c #F8F6F7",
"J. c #F4F5FA",
"K. c #F4F3FF",
"L. c #F1F5FF",
"P. c #FDF7FB",
"I. c #F9F6FD",
"U. c #F3FCF9",
"Y. c #F2FCFB",
"T. c #F6FCFA",
"R. c #F7FFFB",
"E. c #F0FAFF",
"W. c #F0FBFF",
"Q. c #F2FBFF",
"!. c #F4FBFF",
"~. c #F6FBFE",
"^. c #F6FAFF",
"/. c #F3FCFF",
"(. c #F2FDFF",
"). c #F3FDFF",
"_. c azure",
"`. c #F1FFFF",
"'. c #F3FFFF",
"]. c #F4FCFF",
"[. c #F5FDFF",
"{. c #F7FCFF",
"}. c #F4FFFF",
"|. c #F5FFFF",
" X c #F7FFFE",
".X c #F6FFFF",
"XX c #F7FFFF",
"oX c #F8FAF9",
"OX c #FBF9FA",
"+X c #F9FFF9",
"@X c #FDFCFA",
"#X c #FDFFFA",
"$X c #FEFFFB",
"%X c #FBF9FC",
"&X c #FAFBFD",
"*X c #FAFAFF",
"=X c #FBFFFD",
"-X c #F8FCFF",
";X c #F8FFFF",
":X c #F9FFFF",
">X c #FAFEFF",
",X c #FBFEFF",
"<X c #FAFFFF",
"1X c #FBFFFF",
"2X c #FDFDFD",
"3X c #FEFCFD",
"4X c #FEFFFD",
"5X c #FFFFFD",
"6X c #FCFDFF",
"7X c #FDFDFF",
"8X c #FFFDFE",
"9X c #FFFCFF",
"0X c #FFFDFF",
"qX c #FCFFFF",
"wX c #FFFEFF",
"eX c #FEFFFF",
"rX c white",
/* pixels */
"+X:X:X XqXR.$X$X@XqX9X9XqXqX$XqXqXqX",
"R.:XW. X(.:XG.qXqXH.@XqXP.@X9X9XqXqX",
"V.0 h z X f  X~.@XqXOXqX$X9XP.9XqXqX",
" X$ 1.<.f.f.>  X~.:XY. XU.qXI.qX9XqX",
" Xs k v i y h > 4 o 0 =     7 qXqXqX",
"W.c T X.q.d.d.s.s.C.C.(.D.F.; :XqXqX",
"(.O ' } -.;.a.i.N.z.K.c.&XqXt qXqXqX",
"(.< Q `  .:.,.7.p.b.K.qX&XJ.- qXqXqX",
"A.u H W _ ..@.4.9.h.k.b.~. X; :XqXqX",
"A.+ K J U | [ 3.4.0.j.B.l.x.4  XqXqX",
" Xj N S T E / o.#.8.5.e.M.m.0  XqXqX",
"W.> M S S Y ~ ^ O.+.r.t.y.w.&  XqXqX",
" Xa m V Z G L E ( ( :.%.%.i.e  XqXqX",
"(.> b n B C A I P ) { $.,.=.6 :XqXqX",
"9Xr d p @ h a o 5 5 ; x * % r qXqXqX",
"9XqX&X:X X X X X X:X:X:XqXqXqXqXqXqX",
"qXqXqXqXqXqXqXqXqXqXqXqXqXqXqXqXqXqX"
};
